<svg width="1125" height="307" viewBox="0 0 1125 307" fill="none" xmlns="http://www.w3.org/2000/svg">
<path d="M474.697 274.3C469.174 274.3 464.697 269.822 464.697 264.3V258.8C464.697 253.277 460.22 248.8 454.697 248.8H448.297C442.774 248.8 438.297 244.322 438.297 238.8V115.4C438.297 109.877 442.774 105.4 448.297 105.4H454.697C460.22 105.4 464.697 100.922 464.697 95.3996V89.5996C464.697 84.0768 469.174 79.5996 474.697 79.5996H545.897C551.42 79.5996 555.897 84.0768 555.897 89.5996V95.3996C555.897 100.922 560.374 105.4 565.897 105.4H572.597C578.12 105.4 582.597 109.877 582.597 115.4V157C582.597 162.523 578.12 167 572.597 167H554.197C548.674 167 544.197 162.523 544.197 157V130.7C544.197 125.177 539.72 120.7 534.197 120.7H486.397C480.874 120.7 476.397 125.177 476.397 130.7V223.5C476.397 229.022 480.874 233.5 486.397 233.5H534.197C539.72 233.5 544.197 229.022 544.197 223.5V196.5C544.197 190.977 548.674 186.5 554.197 186.5H572.597C578.12 186.5 582.597 190.977 582.597 196.5V238.8C582.597 244.322 578.12 248.8 572.597 248.8H565.897C560.374 248.8 555.897 253.277 555.897 258.8V264.3C555.897 269.822 551.42 274.3 545.897 274.3H474.697Z" fill="#FFEDAC"/>
<path d="M655.459 274.3C649.936 274.3 645.459 269.822 645.459 264.3V258.8C645.459 253.277 640.981 248.8 635.459 248.8H629.059C623.536 248.8 619.059 244.322 619.059 238.8V115.4C619.059 109.877 623.536 105.4 629.059 105.4H635.459C640.981 105.4 645.459 100.922 645.459 95.3996V89.5996C645.459 84.0768 649.936 79.5996 655.459 79.5996H726.659C732.181 79.5996 736.659 84.0768 736.659 89.5996V95.3996C736.659 100.922 741.136 105.4 746.659 105.4H753.359C758.881 105.4 763.359 109.877 763.359 115.4V238.8C763.359 244.322 758.881 248.8 753.359 248.8H746.659C741.136 248.8 736.659 253.277 736.659 258.8V264.3C736.659 269.822 732.181 274.3 726.659 274.3H655.459ZM657.159 223.5C657.159 229.022 661.636 233.5 667.159 233.5H714.959C720.481 233.5 724.959 229.022 724.959 223.5V130.7C724.959 125.177 720.481 120.7 714.959 120.7H667.159C661.636 120.7 657.159 125.177 657.159 130.7V223.5Z" fill="#FFEDAC"/>
<path d="M836.22 274.3C830.697 274.3 826.22 269.822 826.22 264.3V258.8C826.22 253.277 821.743 248.8 816.22 248.8H809.82C804.297 248.8 799.82 244.322 799.82 238.8V115.4C799.82 109.877 804.297 105.4 809.82 105.4H816.22C821.743 105.4 826.22 100.922 826.22 95.3996V89.5996C826.22 84.0768 830.697 79.5996 836.22 79.5996H907.42C912.943 79.5996 917.42 84.0768 917.42 89.5996V95.3996C917.42 100.922 921.897 105.4 927.42 105.4H934.12C939.643 105.4 944.12 109.877 944.12 115.4V238.8C944.12 244.322 939.643 248.8 934.12 248.8H927.42C921.897 248.8 917.42 253.277 917.42 258.8V264.3C917.42 269.822 912.943 274.3 907.42 274.3H836.22ZM837.92 223.5C837.92 229.022 842.397 233.5 847.92 233.5H895.72C901.243 233.5 905.72 229.022 905.72 223.5V130.7C905.72 125.177 901.243 120.7 895.72 120.7H847.92C842.397 120.7 837.92 125.177 837.92 130.7V223.5Z" fill="#FFEDAC"/>
<path d="M990.582 274.3C985.059 274.3 980.582 269.822 980.582 264.3V89.5996C980.582 84.0768 985.059 79.5996 990.582 79.5996H1008.68C1014.2 79.5996 1018.68 84.0768 1018.68 89.5996V95.3996C1018.68 100.922 1023.16 105.4 1028.68 105.4H1035.08C1040.6 105.4 1045.08 109.877 1045.08 115.4V120.9C1045.08 126.422 1049.56 130.9 1055.08 130.9H1061.78C1067.3 130.9 1071.78 135.377 1071.78 140.9V200.35C1071.78 204.409 1075.07 207.7 1079.13 207.7C1083.19 207.7 1086.48 204.409 1086.48 200.35V89.5996C1086.48 84.0768 1090.96 79.5996 1096.48 79.5996H1114.88C1120.4 79.5996 1124.88 84.0768 1124.88 89.5996V264.3C1124.88 269.822 1120.4 274.3 1114.88 274.3H1096.48C1090.96 274.3 1086.48 269.822 1086.48 264.3V258.8C1086.48 253.277 1082 248.8 1076.48 248.8H1070.08C1064.56 248.8 1060.08 244.322 1060.08 238.8V233C1060.08 227.477 1055.6 223 1050.08 223H1043.38C1037.86 223 1033.38 218.522 1033.38 213V153.55C1033.38 149.49 1030.09 146.2 1026.03 146.2C1021.97 146.2 1018.68 149.49 1018.68 153.55V264.3C1018.68 269.822 1014.2 274.3 1008.68 274.3H990.582Z" fill="#FFEDAC"/>
<path d="M123.376 189.64C123.376 196.267 118.004 201.64 111.376 201.64H100.09C93.4623 201.64 88.0898 196.267 88.0898 189.64V177.819C88.0898 171.191 93.4624 165.819 100.09 165.819H111.376C118.004 165.819 123.376 171.191 123.376 177.819V189.64Z" fill="#FFEDAC"/>
<path d="M245.91 189.64C245.91 196.267 240.538 201.64 233.91 201.64H222.624C215.996 201.64 210.624 196.267 210.624 189.64V177.819C210.624 171.191 215.996 165.819 222.624 165.819H233.91C240.538 165.819 245.91 171.191 245.91 177.819V189.64Z" fill="#FFEDAC"/>
<path fill-rule="evenodd" clip-rule="evenodd" d="M35.0338 4.41454C35.0338 6.85263 37.0103 8.82909 39.4483 8.82909H49.5258C51.9871 8.82909 53.9824 10.8244 53.9824 13.2857C53.9824 15.747 55.9776 17.7423 58.4389 17.7423H67.2531C69.6912 17.7423 71.6677 19.7187 71.6677 22.1568V22.7395C71.6677 24.8558 73.3832 26.5714 75.4995 26.5714C77.6158 26.5714 79.3313 28.2869 79.3313 30.4032V31.2316C79.3313 33.5804 81.2354 35.4845 83.5842 35.4845C85.933 35.4845 87.8371 37.3886 87.8371 39.7374V39.8991C87.8371 42.3372 89.8136 44.3136 92.2517 44.3136H111.094C116.017 44.3136 120.008 40.3231 120.008 35.4004C120.008 30.4778 123.998 26.4873 128.921 26.4873H205.079C210.002 26.4873 213.992 30.4778 213.992 35.4004C213.992 40.3231 217.983 44.3136 222.906 44.3136H241.748C244.186 44.3136 246.163 42.3372 246.163 39.8991V39.7374C246.163 37.3886 248.067 35.4845 250.416 35.4845C252.765 35.4845 254.669 33.5804 254.669 31.2316V30.4032C254.669 28.2869 256.384 26.5714 258.501 26.5714C260.617 26.5714 262.332 24.8558 262.332 22.7395V22.1568C262.332 19.7187 264.309 17.7423 266.747 17.7423H275.561C278.022 17.7423 280.018 15.747 280.018 13.2857C280.018 10.8244 282.013 8.82909 284.474 8.82909H294.552C296.99 8.82909 298.966 6.85263 298.966 4.41454C298.966 1.97646 300.943 0 303.381 0H321.08C323.518 0 325.494 1.97646 325.494 4.41454V4.57619C325.494 6.925 327.398 8.82909 329.747 8.82909C332.096 8.82909 334 10.7332 334 13.082V91.8577C334 94.346 331.983 96.3632 329.494 96.3632C327.006 96.3632 324.989 98.3804 324.989 100.869V110.23C324.989 112.742 322.953 114.778 320.441 114.778C317.93 114.778 315.894 116.814 315.894 119.326V142.774C315.894 144.588 317.364 146.058 319.178 146.058H321.075C321.841 146.058 322.462 146.68 322.462 147.446C322.462 148.212 323.084 148.833 323.85 148.833H327.979C331.025 148.833 333.495 151.303 333.495 154.349V213.445C333.495 216.492 331.025 218.961 327.979 218.961H324.06C323.178 218.961 322.462 219.677 322.462 220.559C322.462 221.441 321.747 222.157 320.865 222.157H319.978C318.606 222.157 317.494 223.269 317.494 224.641V239.765C317.494 242.533 315.25 244.776 312.483 244.776H312.013C309.505 244.776 307.472 246.848 307.472 249.356C307.472 251.821 305.474 253.857 303.009 253.857H302.876C300.484 253.857 298.545 255.796 298.545 258.188C298.545 260.579 296.606 262.518 294.215 262.518H289.731C284.878 262.518 280.944 266.452 280.944 271.305C280.944 276.158 277.01 280.092 272.157 280.092H254.992C250.116 280.092 246.163 284.045 246.163 288.921C246.163 293.798 242.21 297.75 237.334 297.75H215.922C213.368 297.75 211.298 299.821 211.298 302.375C211.298 304.929 209.227 307 206.673 307H127.327C124.773 307 122.702 304.929 122.702 302.375C122.702 299.821 120.632 297.75 118.078 297.75H96.6662C91.79 297.75 87.8371 293.798 87.8371 288.921C87.8371 284.045 83.8842 280.092 79.008 280.092H61.843C56.9901 280.092 53.056 276.158 53.056 271.305C53.056 266.452 49.1219 262.518 44.2689 262.518H39.7853C37.3937 262.518 35.4549 260.579 35.4549 258.188C35.4549 255.796 33.5161 253.857 31.1244 253.857H30.9914C28.5263 253.857 26.528 251.821 26.528 249.356C26.528 246.848 24.4951 244.776 21.9873 244.776H21.5171C18.7497 244.776 16.5063 242.533 16.5063 239.765V224.641C16.5063 223.269 15.394 222.157 14.0219 222.157H13.1352C12.2529 222.157 11.5376 221.441 11.5376 220.559C11.5376 219.677 10.8223 218.961 9.93993 218.961H6.02143C2.97495 218.961 0.505295 216.492 0.505295 213.445V154.349C0.505295 151.303 2.97496 148.833 6.02143 148.833H10.1501C10.9164 148.833 11.5376 148.212 11.5376 147.446C11.5376 146.68 12.1587 146.058 12.925 146.058H14.822C16.6359 146.058 18.1064 144.588 18.1064 142.774V119.326C18.1064 116.814 16.0704 114.778 13.5588 114.778C11.0472 114.778 9.01109 112.742 9.01109 110.23V100.869C9.01109 98.3804 6.99389 96.3632 4.50555 96.3632C2.0172 96.3632 0 94.346 0 91.8576V13.082C0 10.7332 1.90409 8.82909 4.2529 8.82909C6.60171 8.82909 8.5058 6.925 8.5058 4.57619V4.41454C8.5058 1.97646 10.4823 0 12.9203 0H30.6193C33.0573 0 35.0338 1.97646 35.0338 4.41454ZM158.228 218.877C153.445 218.877 149.567 222.755 149.567 227.538V231.694C149.567 234.182 151.585 236.199 154.073 236.199H154.164C156.602 236.199 158.578 238.176 158.578 240.614C158.578 243.052 160.555 245.028 162.993 245.028H171.007C173.445 245.028 175.422 243.052 175.422 240.614C175.422 238.176 177.398 236.199 179.836 236.199H179.927C182.415 236.199 184.433 234.182 184.433 231.694V227.538C184.433 222.755 180.555 218.877 175.772 218.877H158.228ZM71.0782 140.761C71.0782 145.869 66.937 150.01 61.8287 150.01H45.0845C40.3708 150.01 36.5497 153.832 36.5497 158.545C36.5497 163.259 32.7285 167.08 28.0149 167.08H27.4544C22.4312 167.08 18.3591 171.152 18.3591 176.175V192.04C18.3591 197.063 22.4312 201.135 27.4544 201.135H28.1831C32.8038 201.135 36.5497 204.881 36.5497 209.502C36.5497 214.122 40.2955 217.868 44.9163 217.868H50.5768C52.4577 217.868 53.9824 219.393 53.9824 221.274V221.437C53.9824 223.228 55.434 224.679 57.2247 224.679C59.0153 224.679 60.467 226.131 60.467 227.922V230.145C60.467 233.163 62.914 235.611 65.9326 235.611H96.3145C101.214 235.611 105.186 231.639 105.186 226.739C105.186 221.84 109.157 217.868 114.057 217.868H132.442C137.063 217.868 140.809 214.122 140.809 209.502C140.809 204.881 144.624 201.135 149.245 201.135C153.942 201.135 157.82 197.327 157.82 192.629V159.864C157.82 154.422 153.409 150.01 147.967 150.01H147.363C142.255 150.01 138.114 145.869 138.114 140.761C138.114 135.653 133.973 131.511 128.864 131.511H80.3277C75.2193 131.511 71.0782 135.653 71.0782 140.761ZM195.886 140.761C195.886 145.869 191.745 150.01 186.637 150.01H186.033C180.591 150.01 176.18 154.422 176.18 159.864V192.629C176.18 197.327 180.058 201.135 184.755 201.135C189.376 201.135 193.191 204.881 193.191 209.502C193.191 214.122 196.937 217.868 201.558 217.868H219.943C224.843 217.868 228.814 221.84 228.814 226.739C228.814 231.639 232.786 235.611 237.686 235.611H268.067C271.086 235.611 273.533 233.163 273.533 230.145V227.922C273.533 226.131 274.985 224.679 276.775 224.679C278.566 224.679 280.018 223.228 280.018 221.437V221.274C280.018 219.393 281.542 217.868 283.423 217.868H289.084C293.704 217.868 297.45 214.122 297.45 209.502C297.45 204.881 301.196 201.135 305.817 201.135H306.546C311.569 201.135 315.641 197.063 315.641 192.04V176.175C315.641 171.152 311.569 167.08 306.546 167.08H305.985C301.272 167.08 297.45 163.259 297.45 158.545C297.45 153.832 293.629 150.01 288.916 150.01H272.171C267.063 150.01 262.922 145.869 262.922 140.761C262.922 135.653 258.781 131.511 253.672 131.511H205.136C200.027 131.511 195.886 135.653 195.886 140.761ZM18.1064 74.1155C18.1064 76.5573 20.0859 78.5368 22.5277 78.5368C24.9696 78.5368 26.9491 80.5163 26.9491 82.9582V91.5629C26.9491 94.214 29.0982 96.3632 31.7494 96.3632H32.2613C34.6297 96.3632 36.5497 94.4432 36.5497 92.0748V91.4919C36.5497 89.4454 38.2087 87.7864 40.2552 87.7864C42.3017 87.7864 43.9607 86.1274 43.9607 84.0809V83.7082C43.9607 81.4558 45.7865 79.63 48.0389 79.63H49.6099C52.0247 79.63 53.9824 77.6723 53.9824 75.2575C53.9824 72.8426 55.94 70.885 58.3549 70.885H62.0671C66.5321 70.885 70.1518 67.2653 70.1518 62.8002V57.1007C70.1518 54.9612 68.4174 53.2268 66.2779 53.2268C64.1384 53.2268 62.4039 51.4924 62.4039 49.3529V48.7702C62.4039 46.3089 60.4087 44.3136 57.9473 44.3136H56.0389C53.6008 44.3136 51.6243 42.3372 51.6243 39.8991C51.6243 37.461 49.6479 35.4845 47.2098 35.4845H39.4904C37.0291 35.4845 35.0338 33.4892 35.0338 31.0279C35.0338 28.5666 33.0385 26.5714 30.5772 26.5714H26.5701C21.8957 26.5714 18.1064 30.3607 18.1064 35.035V74.1155ZM298.966 31.0279C298.966 33.4892 296.971 35.4845 294.51 35.4845H286.79C284.352 35.4845 282.376 37.461 282.376 39.8991C282.376 42.3372 280.399 44.3136 277.961 44.3136H276.053C273.591 44.3136 271.596 46.3089 271.596 48.7702V49.3529C271.596 51.4924 269.862 53.2268 267.722 53.2268C265.583 53.2268 263.848 54.9612 263.848 57.1007V62.8002C263.848 67.2653 267.468 70.885 271.933 70.885H275.645C278.06 70.885 280.018 72.8426 280.018 75.2575C280.018 77.6723 281.975 79.63 284.39 79.63H285.961C288.213 79.63 290.039 81.4558 290.039 83.7082V84.0809C290.039 86.1274 291.698 87.7864 293.745 87.7864C295.791 87.7864 297.45 89.4454 297.45 91.4919V92.0748C297.45 94.4432 299.37 96.3632 301.739 96.3632H302.251C304.902 96.3632 307.051 94.214 307.051 91.5629V82.9582C307.051 80.5163 309.03 78.5368 311.472 78.5368C313.914 78.5368 315.894 76.5573 315.894 74.1155V35.0351C315.894 30.3607 312.104 26.5714 307.43 26.5714H303.423C300.962 26.5714 298.966 28.5666 298.966 31.0279Z" fill="#FFEDAC"/>
</svg>
