<svg width="687" height="195" viewBox="0 0 687 195" fill="none" xmlns="http://www.w3.org/2000/svg">
<path d="M36.4 194.7C30.8772 194.7 26.4 190.223 26.4 184.7V179.2C26.4 173.677 21.9228 169.2 16.4 169.2H9.99999C4.47714 169.2 0 164.723 0 159.2V35.8C0 30.2771 4.47715 25.8 10 25.8H16.4C21.9229 25.8 26.4 21.3228 26.4 15.8V10C26.4 4.47715 30.8772 0 36.4 0H107.6C113.123 0 117.6 4.47715 117.6 10V15.8C117.6 21.3228 122.077 25.8 127.6 25.8H134.3C139.823 25.8 144.3 30.2771 144.3 35.8V77.4004C144.3 82.9232 139.823 87.4004 134.3 87.4004H115.9C110.377 87.4004 105.9 82.9232 105.9 77.4004V51.1C105.9 45.5771 101.423 41.1 95.9 41.1H48.1C42.5771 41.1 38.1 45.5771 38.1 51.1V143.9C38.1 149.423 42.5772 153.9 48.1 153.9H95.9C101.423 153.9 105.9 149.423 105.9 143.9V116.9C105.9 111.378 110.377 106.9 115.9 106.9H134.3C139.823 106.9 144.3 111.378 144.3 116.9V159.2C144.3 164.723 139.823 169.2 134.3 169.2H127.6C122.077 169.2 117.6 173.677 117.6 179.2V184.7C117.6 190.223 113.123 194.7 107.6 194.7H36.4Z" fill="white"/>
<path d="M217.162 194.7C211.639 194.7 207.162 190.223 207.162 184.7V179.2C207.162 173.677 202.685 169.2 197.162 169.2H190.762C185.239 169.2 180.762 164.723 180.762 159.2V35.8C180.762 30.2771 185.239 25.8 190.762 25.8H197.162C202.685 25.8 207.162 21.3228 207.162 15.8V10C207.162 4.47715 211.639 0 217.162 0H288.362C293.885 0 298.362 4.47715 298.362 10V15.8C298.362 21.3228 302.839 25.8 308.362 25.8H315.062C320.585 25.8 325.062 30.2771 325.062 35.8V159.2C325.062 164.723 320.585 169.2 315.062 169.2H308.362C302.839 169.2 298.362 173.677 298.362 179.2V184.7C298.362 190.223 293.885 194.7 288.362 194.7H217.162ZM218.862 143.9C218.862 149.423 223.339 153.9 228.862 153.9H276.662C282.185 153.9 286.662 149.423 286.662 143.9V51.1C286.662 45.5771 282.185 41.1 276.662 41.1H228.862C223.339 41.1 218.862 45.5771 218.862 51.1V143.9Z" fill="white"/>
<path d="M397.923 194.7C392.401 194.7 387.923 190.223 387.923 184.7V179.2C387.923 173.677 383.446 169.2 377.923 169.2H371.523C366.001 169.2 361.523 164.723 361.523 159.2V35.8C361.523 30.2771 366.001 25.8 371.523 25.8H377.923C383.446 25.8 387.923 21.3228 387.923 15.8V10C387.923 4.47715 392.401 0 397.923 0H469.123C474.646 0 479.123 4.47715 479.123 10V15.8C479.123 21.3228 483.601 25.8 489.123 25.8H495.823C501.346 25.8 505.823 30.2771 505.823 35.8V159.2C505.823 164.723 501.346 169.2 495.823 169.2H489.123C483.601 169.2 479.123 173.677 479.123 179.2V184.7C479.123 190.223 474.646 194.7 469.123 194.7H397.923ZM399.623 143.9C399.623 149.423 404.101 153.9 409.623 153.9H457.423C462.946 153.9 467.423 149.423 467.423 143.9V51.1C467.423 45.5771 462.946 41.1 457.423 41.1H409.623C404.101 41.1 399.623 45.5771 399.623 51.1V143.9Z" fill="white"/>
<path d="M552.285 194.7C546.762 194.7 542.285 190.223 542.285 184.7V9.99999C542.285 4.47714 546.762 0 552.285 0H570.385C575.908 0 580.385 4.47715 580.385 10V15.8C580.385 21.3228 584.862 25.8 590.385 25.8H596.785C602.308 25.8 606.785 30.2771 606.785 35.8V41.3C606.785 46.8228 611.262 51.3 616.785 51.3H623.485C629.008 51.3 633.485 55.7772 633.485 61.3V120.75C633.485 124.809 636.776 128.1 640.835 128.1C644.894 128.1 648.185 124.809 648.185 120.75V10C648.185 4.47715 652.662 0 658.185 0H676.585C682.108 0 686.585 4.47715 686.585 10V184.7C686.585 190.223 682.108 194.7 676.585 194.7H658.185C652.662 194.7 648.185 190.223 648.185 184.7V179.2C648.185 173.677 643.708 169.2 638.185 169.2H631.785C626.262 169.2 621.785 164.723 621.785 159.2V153.4C621.785 147.877 617.308 143.4 611.785 143.4H605.085C599.562 143.4 595.085 138.923 595.085 133.4V73.95C595.085 69.8907 591.794 66.6 587.735 66.6C583.676 66.6 580.385 69.8907 580.385 73.95V184.7C580.385 190.223 575.908 194.7 570.385 194.7H552.285Z" fill="white"/>
</svg>
