<svg width="480" height="441" viewBox="0 0 480 441" fill="none" xmlns="http://www.w3.org/2000/svg">
<path d="M177.307 277.652C177.307 284.279 171.935 289.652 165.307 289.652H138.596C131.969 289.652 126.596 284.279 126.596 277.652V250.196C126.596 243.568 131.969 238.196 138.596 238.196H165.307C171.935 238.196 177.307 243.568 177.307 250.196V277.652Z" fill="white"/>
<path d="M353.404 277.652C353.404 284.279 348.031 289.652 341.404 289.652H314.693C308.065 289.652 302.693 284.279 302.693 277.652V250.196C302.693 243.568 308.065 238.196 314.693 238.196H341.404C348.031 238.196 353.404 243.568 353.404 250.196V277.652Z" fill="white"/>
<path fill-rule="evenodd" clip-rule="evenodd" d="M50.348 6.34141C50.348 9.84368 53.1871 12.6828 56.6894 12.6828H71.1776C74.7132 12.6828 77.5794 15.549 77.5794 19.0846C77.5794 22.6203 80.4456 25.4864 83.9812 25.4864H96.654C100.156 25.4864 102.995 28.3256 102.995 31.8279V32.6625C102.995 35.7038 105.461 38.1693 108.502 38.1693C111.544 38.1693 114.009 40.6347 114.009 43.6761V44.8609C114.009 48.2365 116.745 50.9729 120.121 50.9729C123.497 50.9729 126.233 53.7093 126.233 57.0848V57.3143C126.233 60.8166 129.072 63.6557 132.574 63.6557H159.662C166.734 63.6557 172.466 57.9233 172.466 50.8521C172.466 43.7809 178.198 38.0485 185.27 38.0485H294.73C301.802 38.0485 307.534 43.7809 307.534 50.8521C307.534 57.9233 313.266 63.6557 320.338 63.6557H347.426C350.928 63.6557 353.767 60.8166 353.767 57.3143V57.0848C353.767 53.7093 356.503 50.9729 359.879 50.9729C363.255 50.9729 365.991 48.2365 365.991 44.8609V43.6761C365.991 40.6347 368.456 38.1693 371.498 38.1693C374.539 38.1693 377.005 35.7038 377.005 32.6625V31.8279C377.005 28.3256 379.844 25.4864 383.346 25.4864H396.019C399.554 25.4864 402.421 22.6203 402.421 19.0846C402.421 15.549 405.287 12.6828 408.822 12.6828H423.311C426.813 12.6828 429.652 9.84368 429.652 6.34141C429.652 2.83915 432.491 0 435.993 0H461.435C464.937 0 467.776 2.83915 467.776 6.34141V6.57088C467.776 9.94642 470.513 12.6828 473.888 12.6828C477.264 12.6828 480 15.4192 480 18.7948V131.949C480 135.525 477.101 138.424 473.525 138.424C469.949 138.424 467.05 141.323 467.05 144.899V158.341C467.05 161.951 464.124 164.877 460.514 164.877C456.905 164.877 453.979 167.803 453.979 171.412V205.09C453.979 207.697 456.092 209.81 458.699 209.81H461.426C462.527 209.81 463.419 210.702 463.419 211.803C463.419 212.904 464.311 213.796 465.412 213.796H471.346C475.725 213.796 479.274 217.345 479.274 221.724V306.607C479.274 310.985 475.725 314.534 471.346 314.534H465.714C464.447 314.534 463.419 315.562 463.419 316.829C463.419 318.097 462.392 319.124 461.124 319.124H459.849C457.877 319.124 456.278 320.723 456.278 322.694V344.415C456.278 348.392 453.054 351.616 449.077 351.616H448.399C444.796 351.616 441.876 354.591 441.876 358.193C441.876 361.736 439.004 364.661 435.461 364.661H435.268C431.832 364.661 429.047 367.447 429.047 370.882C429.047 374.318 426.262 377.103 422.826 377.103H416.374C409.403 377.103 403.752 382.754 403.752 389.725C403.752 396.696 398.101 402.348 391.129 402.348H366.45C359.445 402.348 353.767 408.026 353.767 415.03C353.767 422.035 348.089 427.713 341.084 427.713H310.305C306.635 427.713 303.661 430.688 303.661 434.357C303.661 438.026 300.687 441 297.018 441H182.982C179.313 441 176.339 438.026 176.339 434.357C176.339 430.688 173.365 427.713 169.695 427.713H138.916C131.911 427.713 126.233 422.035 126.233 415.03C126.233 408.026 120.555 402.348 113.55 402.348H88.8705C81.8994 402.348 76.2481 396.696 76.2481 389.725C76.2481 382.754 70.5969 377.103 63.6257 377.103H57.1737C53.7382 377.103 50.9531 374.318 50.9531 370.882C50.9531 367.447 48.168 364.661 44.7325 364.661H44.5386C40.9959 364.661 38.1241 361.736 38.1241 358.193C38.1241 354.591 35.2038 351.616 31.6015 351.616H30.9228C26.9457 351.616 23.7216 348.392 23.7216 344.415V322.694C23.7216 320.723 22.1231 319.124 20.1513 319.124H18.8759C17.6084 319.124 16.5809 318.097 16.5809 316.829C16.5809 315.562 15.5534 314.534 14.286 314.534H8.65356C4.27538 314.534 0.726173 310.985 0.726173 306.607V221.724C0.726173 217.345 4.27538 213.796 8.65356 213.796H14.5879C15.6886 213.796 16.5809 212.904 16.5809 211.803C16.5809 210.702 17.4732 209.81 18.5739 209.81H21.3011C23.9079 209.81 26.0212 207.697 26.0212 205.09V171.412C26.0212 167.803 23.0951 164.877 19.4856 164.877C15.8761 164.877 12.9501 161.951 12.9501 158.341V144.899C12.9501 141.323 10.0511 138.424 6.47504 138.424C2.89897 138.424 0 135.525 0 131.949V18.7948C0 15.4192 2.73641 12.6828 6.11195 12.6828C9.48749 12.6828 12.2239 9.94641 12.2239 6.57087V6.34141C12.2239 2.83915 15.0631 0 18.5653 0H44.0065C47.5088 0 50.348 2.83915 50.348 6.34141ZM227.388 314.413C220.517 314.413 214.947 319.983 214.947 326.855V332.821C214.947 336.397 217.846 339.296 221.422 339.296H221.556C225.058 339.296 227.897 342.135 227.897 345.637C227.897 349.139 230.736 351.979 234.239 351.979H245.761C249.264 351.979 252.103 349.139 252.103 345.637C252.103 342.135 254.942 339.296 258.444 339.296H258.578C262.154 339.296 265.053 336.397 265.053 332.821V326.855C265.053 319.983 259.483 314.413 252.612 314.413H227.388ZM102.148 202.2C102.148 209.539 96.1996 215.487 88.8615 215.487H64.7865C58.0155 215.487 52.5265 220.976 52.5265 227.747C52.5265 234.518 47.0375 240.007 40.2664 240.007H39.4554C32.2364 240.007 26.3843 245.86 26.3843 253.078V275.856C26.3843 283.075 32.2364 288.927 39.4554 288.927H40.508C47.1456 288.927 52.5265 294.308 52.5265 300.945C52.5265 307.583 57.9073 312.964 64.545 312.964H72.6875C75.3892 312.964 77.5794 315.154 77.5794 317.856V318.088C77.5794 320.662 79.6656 322.748 82.239 322.748C84.8125 322.748 86.8986 324.834 86.8986 327.407V330.599C86.8986 334.935 90.4138 338.45 94.7499 338.45H138.422C145.46 338.45 151.165 332.745 151.165 325.707C151.165 318.669 156.87 312.964 163.908 312.964H190.342C196.979 312.964 202.36 307.583 202.36 300.945C202.36 294.308 207.843 288.927 214.48 288.927C221.231 288.927 226.808 283.454 226.808 276.703V229.648C226.808 221.827 220.468 215.487 212.648 215.487H211.774C204.436 215.487 198.487 209.539 198.487 202.2C198.487 194.862 192.538 188.914 185.2 188.914H115.435C108.097 188.914 102.148 194.862 102.148 202.2ZM281.513 202.2C281.513 209.539 275.564 215.487 268.226 215.487H267.352C259.532 215.487 253.192 221.827 253.192 229.648V276.703C253.192 283.454 258.769 288.927 265.52 288.927C272.157 288.927 277.64 294.308 277.64 300.945C277.64 307.583 283.021 312.964 289.658 312.964H316.092C323.13 312.964 328.835 318.669 328.835 325.707C328.835 332.745 334.54 338.45 341.578 338.45H385.25C389.586 338.45 393.101 334.935 393.101 330.599V327.407C393.101 324.834 395.188 322.748 397.761 322.748C400.334 322.748 402.421 320.662 402.421 318.088V317.856C402.421 315.154 404.611 312.964 407.313 312.964H415.455C422.093 312.964 427.474 307.583 427.474 300.945C427.474 294.308 432.854 288.927 439.492 288.927H440.545C447.764 288.927 453.616 283.075 453.616 275.856V253.079C453.616 245.86 447.764 240.007 440.545 240.007H439.734C432.963 240.007 427.474 234.518 427.474 227.747C427.474 220.976 421.985 215.487 415.213 215.487H391.139C383.8 215.487 377.852 209.539 377.852 202.2C377.852 194.862 371.903 188.914 364.565 188.914H294.8C287.462 188.914 281.513 194.862 281.513 202.2ZM26.0212 106.463C26.0212 109.972 28.866 112.817 32.3752 112.817C35.8844 112.817 38.7292 115.662 38.7292 119.171V131.525C38.7292 135.335 41.8178 138.424 45.6278 138.424H46.3662C49.7684 138.424 52.5265 135.666 52.5265 132.264V131.429C52.5265 128.488 54.9107 126.104 57.8517 126.104C60.7928 126.104 63.177 123.719 63.177 120.778V120.245C63.177 117.01 65.7998 114.387 69.0353 114.387H71.2984C74.7673 114.387 77.5794 111.575 77.5794 108.106C77.5794 104.637 80.3915 101.825 83.8605 101.825H89.1982C95.615 101.825 100.817 96.6231 100.817 90.2062V82.0266C100.817 78.9519 98.3244 76.4593 95.2496 76.4593C92.1749 76.4593 89.6823 73.9668 89.6823 70.892V70.0575C89.6823 66.5219 86.8161 63.6557 83.2805 63.6557H80.532C77.0298 63.6557 74.1906 60.8166 74.1906 57.3143C74.1906 53.812 71.3515 50.9729 67.8492 50.9729H56.7498C53.2142 50.9729 50.348 48.1067 50.348 44.5711C50.348 41.0355 47.4818 38.1693 43.9462 38.1693H38.1846C31.4669 38.1693 26.0212 43.615 26.0212 50.3327V106.463ZM429.652 44.5711C429.652 48.1067 426.786 50.9729 423.25 50.9729H412.151C408.649 50.9729 405.809 53.812 405.809 57.3143C405.809 60.8166 402.97 63.6557 399.468 63.6557H396.719C393.184 63.6557 390.318 66.5219 390.318 70.0575V70.892C390.318 73.9668 387.825 76.4593 384.75 76.4593C381.676 76.4593 379.183 78.9519 379.183 82.0266V90.2062C379.183 96.6231 384.385 101.825 390.802 101.825H396.14C399.608 101.825 402.421 104.637 402.421 108.106C402.421 111.575 405.233 114.387 408.702 114.387H410.965C414.2 114.387 416.823 117.01 416.823 120.245V120.778C416.823 123.719 419.207 126.104 422.148 126.104C425.089 126.104 427.474 128.488 427.474 131.429V132.264C427.474 135.666 430.232 138.424 433.634 138.424H434.372C438.182 138.424 441.271 135.335 441.271 131.525V119.171C441.271 115.662 444.116 112.817 447.625 112.817C451.134 112.817 453.979 109.972 453.979 106.463V50.3327C453.979 43.615 448.533 38.1693 441.815 38.1693H436.054C432.518 38.1693 429.652 41.0355 429.652 44.5711Z" fill="white"/>
</svg>
